HIERARCHY
ROOT Hips
{
	OFFSET 0.00000 0.00000 0.00000
	CHANNELS 6 Xposition Yposition Zposition Zrotation Yrotation Xrotation 
	JOINT LHipJoint
	{
		OFFSET 0 0 0
		CHANNELS 3 Zrotation Yrotation Xrotation
		JOINT LeftUpLeg
		{
			OFFSET 1.29432 -1.88279 0.59910
			CHANNELS 3 Zrotation Yrotation Xrotation
			JOINT LeftLeg
			{
				OFFSET 2.63039 -7.22694 0.00000
				CHANNELS 3 Zrotation Yrotation Xrotation
				JOINT LeftFoot
				{
					OFFSET 2.70674 -7.43672 0.00000
					CHANNELS 3 Zrotation Yrotation Xrotation
					JOINT LeftToeBase
					{
						OFFSET 0.15066 -0.41394 2.09027
						CHANNELS 3 Zrotation Yrotation Xrotation
						End Site
						{
							OFFSET 0.00000 -0.00000 1.07518
						}
					}
				}
			}
		}
	}
	JOINT RHipJoint
	{
		OFFSET 0 0 0
		CHANNELS 3 Zrotation Yrotation Xrotation
		JOINT RightUpLeg
		{
			OFFSET -1.37068 -1.88279 0.59910
			CHANNELS 3 Zrotation Yrotation Xrotation
			JOINT RightLeg
			{
				OFFSET -2.57023 -7.06166 0.00000
				CHANNELS 3 Zrotation Yrotation Xrotation
				JOINT RightFoot
				{
					OFFSET -2.76461 -7.59570 0.00000
					CHANNELS 3 Zrotation Yrotation Xrotation
					JOINT RightToeBase
					{
						OFFSET -0.24175 -0.64785 2.19719
						CHANNELS 3 Zrotation Yrotation Xrotation
						End Site
						{
							OFFSET -0.00000 -0.00000 1.14803
						}
					}
				}
			}
		}
	}
	JOINT LowerBack
	{
		OFFSET 0 0 0
		CHANNELS 3 Zrotation Yrotation Xrotation
		JOINT Spine
		{
			OFFSET -0.03138 2.03983 -0.23106
			CHANNELS 3 Zrotation Yrotation Xrotation
			JOINT Spine1
			{
				OFFSET -0.00325 2.06238 -0.06878
				CHANNELS 3 Zrotation Yrotation Xrotation
				JOINT Neck
				{
					OFFSET 0 0 0
					CHANNELS 3 Zrotation Yrotation Xrotation
					JOINT Neck1
					{
						OFFSET -0.00002 1.75318 0.18090
						CHANNELS 3 Zrotation Yrotation Xrotation
						JOINT Head
						{
							OFFSET 0.08806 1.75856 -0.25387
							CHANNELS 3 Zrotation Yrotation Xrotation
							End Site
							{
								OFFSET 0.02554 1.78597 -0.10684
							}
						}
					}
				}
				JOINT LeftShoulder
				{
					OFFSET 0 0 0
					CHANNELS 3 Zrotation Yrotation Xrotation
					JOINT LeftArm
					{
						OFFSET 3.09657 1.33597 -0.04414
						CHANNELS 3 Zrotation Yrotation Xrotation
						JOINT LeftForeArm
						{
							OFFSET 5.34298 -0.00000 -0.00000
							CHANNELS 3 Zrotation Yrotation Xrotation
							JOINT LeftHand
							{
								OFFSET 3.67262 -0.00000 -0.00000
								CHANNELS 3 Zrotation Yrotation Xrotation
								JOINT LeftFingerBase
								{
									OFFSET 0 0 0
									CHANNELS 3 Zrotation Yrotation Xrotation
									JOINT LeftHandIndex1
									{
										OFFSET 0.59930 -0.00000 -0.00000
										CHANNELS 3 Zrotation Yrotation Xrotation
										End Site
										{
											OFFSET 0.48317 -0.00000 -0.00000
										}
									}
								}
								JOINT LThumb
								{
									OFFSET 0 0 0
									CHANNELS 3 Zrotation Yrotation Xrotation
									End Site
									{
										OFFSET 0.49055 -0.00000 0.49055
									}
								}
							}
						}
					}
				}
				JOINT RightShoulder
				{
					OFFSET 0 0 0
					CHANNELS 3 Zrotation Yrotation Xrotation
					JOINT RightArm
					{
						OFFSET -3.16460 1.32273 -0.23382
						CHANNELS 3 Zrotation Yrotation Xrotation
						JOINT RightForeArm
						{
							OFFSET -5.54967 -0.01834 0.03348
							CHANNELS 3 Zrotation Yrotation Xrotation
							JOINT RightHand
							{
								OFFSET -3.69401 -0.00000 0.00000
								CHANNELS 3 Zrotation Yrotation Xrotation
								JOINT RightFingerBase
								{
									OFFSET 0 0 0
									CHANNELS 3 Zrotation Yrotation Xrotation
									JOINT RightHandIndex1
									{
										OFFSET -0.63811 -0.00000 0.00000
										CHANNELS 3 Zrotation Yrotation Xrotation
										End Site
										{
											OFFSET -0.51446 -0.00000 0.00000
										}
									}
								}
								JOINT RThumb
								{
									OFFSET 0 0 0
									CHANNELS 3 Zrotation Yrotation Xrotation
									End Site
									{
										OFFSET -0.52232 -0.00000 0.52232
									}
								}
							}
						}
					}
				}
			}
		}
	}
}
MOTION
Frames: 10
Frame Time: .0083333
-0.2678 18.5928 5.6167 3.7209 12.9974 3.0793 0.0000 0.0000 0.0000 -25.6554 -9.8915 -9.5020 1.1179 6.7166 18.8784 0.0595 -6.8207 -6.1162 0.0305 1.1272 3.0988 0.0000 0.0000 0.0000 9.8798 3.3326 -10.1348 -9.5487 -17.1481 57.9689 -0.0146 -0.7635 2.1435 -0.7494 5.5294 -15.4248 -6.9936 4.4423 3.1277 -2.8781 5.7859 2.6315 0.7577 2.8272 0.5859 12.4536 21.0572 5.6400 -17.8105 30.3840 6.5757 -5.1430 15.0815 5.7394 0.0000 -0.0000 0.0000 -87.8157 -5.2056 1.2177 9.0974 -15.3155 -1.2257 -0.0000 -0.0000 34.0047 12.8544 31.3551 6.7715 -7.1250 0.0000 -0.0000 -22.0057 60.6231 -8.6234 0.0000 -0.0000 0.0000 89.5739 -6.4247 4.1180 -17.5793 27.6151 -4.3524 0.0000 0.0000 20.2289 -22.3785 23.7243 -9.4059 7.1250 -0.0000 -0.0000 4.2207 -4.6186 3.8779
-0.2239 18.5988 5.7625 3.9755 13.1767 3.1727 0.0000 0.0000 0.0000 -26.0906 -9.8236 -8.6950 1.0664 6.5651 18.4330 0.0744 -6.8779 -6.4489 0.0326 1.1648 3.2023 0.0000 0.0000 0.0000 9.5602 3.3756 -11.1616 -9.8460 -17.3223 58.9724 0.0006 -6.0679 4.2332 -0.0579 1.5530 -4.2718 -7.0955 4.4005 3.0258 -2.9377 5.7420 2.6724 0.7646 2.8013 0.6849 12.5808 21.1613 5.5136 -17.9339 30.5896 6.8113 -5.1247 15.1631 5.9045 0.0000 0.0000 0.0000 -87.6793 -4.9305 1.8187 9.2985 -15.6348 -1.2794 -0.0000 -0.0000 33.0910 12.5438 32.2481 6.7705 -7.1250 0.0000 -0.0000 -23.0993 61.3633 -9.4865 0.0000 0.0000 0.0000 89.5872 -6.3869 4.0641 -17.5342 27.5566 -4.3316 0.0000 0.0000 20.5905 -20.9913 23.1048 -8.5625 7.1250 -0.0000 -0.0000 5.0199 -5.5011 4.5333
-0.1850 18.5982 5.9017 3.9646 13.2475 3.3769 0.0000 0.0000 0.0000 -26.1633 -9.6781 -8.2702 1.0364 6.4751 18.1693 0.0927 -7.0385 -6.8848 0.0392 1.2785 3.5154 0.0000 0.0000 0.0000 9.5418 3.6112 -12.3315 -10.0923 -17.4614 59.7964 0.0231 -5.9023 3.4427 -0.0977 2.0158 -5.5492 -7.0543 4.4214 2.8645 -2.8659 5.7810 2.5985 0.8239 2.8216 0.6920 12.4279 21.2864 5.3079 -17.6625 30.7722 7.1928 -4.9699 15.2272 6.0160 -0.0000 -0.0000 0.0000 -87.7939 -4.6349 2.0167 9.5910 -16.0973 -1.3593 -0.0000 -0.0000 32.7547 13.0185 32.3280 7.0484 -7.1250 0.0000 -0.0000 -22.6657 61.5525 -9.3999 -0.0000 -0.0000 0.0000 89.5550 -6.5183 3.9298 -17.5705 27.6038 -4.3484 0.0000 0.0000 20.9872 -19.9079 23.1776 -8.1121 7.1250 -0.0000 -0.0000 5.7010 -5.6002 5.1436
-0.1472 18.5908 6.0394 4.0495 13.2301 3.4563 0.0000 0.0000 0.0000 -26.3617 -9.2688 -7.8872 1.0311 6.4589 18.1218 0.1108 -7.3837 -7.3803 0.0388 1.2706 3.4938 0.0000 0.0000 0.0000 9.4291 3.8186 -13.3784 -10.2877 -17.5685 60.4456 0.0431 -5.5775 2.4304 -0.1216 2.2479 -6.1913 -7.0020 4.5321 2.9063 -2.8684 5.9196 2.5182 0.7795 2.8959 0.5816 12.2205 21.3466 5.3028 -17.3822 30.8159 7.2515 -4.8713 15.2495 5.9631 -0.0000 0.0000 0.0000 -87.7813 -4.2872 2.5075 9.8868 -16.5622 -1.4425 -0.0000 -0.0000 32.4971 13.2039 32.3706 7.1596 -7.1250 0.0000 -0.0000 -22.5059 61.6372 -9.3750 -0.0000 0.0000 0.0000 89.6101 -6.7270 3.7246 -17.5134 27.5296 -4.3220 0.0000 0.0000 21.4258 -19.6512 23.7392 -8.1805 7.1250 -0.0000 -0.0000 5.9091 -5.0612 5.3942
-0.1186 18.5935 6.1876 3.9827 13.3108 3.2963 0.0000 0.0000 0.0000 -26.3592 -8.5126 -7.4591 1.0407 6.4881 18.2073 0.1065 -8.0204 -7.6131 0.0238 0.9962 2.7383 0.0000 0.0000 0.0000 9.6729 3.9912 -14.1221 -10.4134 -17.6358 60.8612 0.0710 -5.5259 1.0455 -0.1677 2.6380 -7.2725 -6.9349 4.5816 2.9991 -2.8457 5.9768 2.5067 0.7553 2.9271 0.5183 12.5472 21.3323 5.7051 -17.6599 30.8418 7.0074 -5.0236 15.2957 5.9233 0.0000 0.0000 0.0000 -87.5165 -4.0526 3.1363 9.9966 -16.7342 -1.4740 -0.0000 -0.0000 32.0909 12.3775 33.3991 6.8881 -7.1250 0.0000 -0.0000 -24.3370 62.3602 -10.6036 0.0000 0.0000 0.0000 89.6798 -6.9382 3.9319 -17.4427 27.4377 -4.2893 0.0000 0.0000 21.3609 -19.1208 23.7746 -7.9563 7.1250 -0.0000 -0.0000 6.2404 -5.1086 5.6946
-0.0926 18.6016 6.3282 3.7031 13.3907 3.3724 0.0000 0.0000 0.0000 -26.0344 -7.7464 -7.5028 1.0679 6.5695 18.4460 0.0917 -8.7922 -7.7705 0.0122 0.7120 1.9567 0.0000 0.0000 0.0000 10.1516 4.4850 -15.1558 -10.4909 -17.6768 61.1169 0.1022 -5.8297 -0.6407 -0.1228 2.2587 -6.2213 -6.8031 4.5390 2.8250 -2.6935 5.9346 2.4484 0.8533 2.9063 0.5537 12.7260 21.4242 6.0159 -17.9018 31.0224 6.9060 -5.1116 15.4039 5.9388 0.0000 -0.0000 0.0000 -87.3834 -4.1231 3.3584 9.9106 -16.5996 -1.4493 -0.0000 -0.0000 31.9762 12.2291 33.9886 6.9085 -7.1250 0.0000 -0.0000 -25.0738 62.8483 -11.2345 0.0000 -0.0000 0.0000 89.6833 -7.1277 4.0083 -17.5217 27.5404 -4.3258 0.0000 0.0000 21.4965 -18.6877 23.8816 -7.7974 7.1250 -0.0000 -0.0000 6.5172 -5.0662 5.9557
-0.0586 18.6013 6.4590 3.6539 13.3616 3.5673 0.0000 0.0000 0.0000 -26.0135 -7.3544 -7.5600 1.1034 6.6742 18.7538 0.1089 -9.2105 -8.2690 0.0091 0.6169 1.6951 0.0000 0.0000 0.0000 10.2218 4.9321 -16.2448 -10.5241 -17.6942 61.2263 0.1100 -5.8777 -2.4689 -0.0520 1.4721 -4.0488 -6.7608 4.5128 2.7607 -2.6066 5.8995 2.3509 0.9210 2.8918 0.4854 12.5571 21.6101 5.7917 -17.6219 31.2813 7.2745 -4.9384 15.5036 6.0562 -0.0000 0.0000 0.0000 -87.3010 -4.2097 3.6312 9.8239 -16.4637 -1.4246 -0.0000 -0.0000 31.5407 12.6762 33.8744 7.1457 -7.1250 0.0000 -0.0000 -24.4812 62.8620 -10.9598 -0.0000 0.0000 0.0000 89.6918 -7.3605 3.9108 -17.7488 27.8343 -4.4313 0.0000 0.0000 21.8533 -18.3249 24.0862 -7.6978 7.1250 -0.0000 -0.0000 6.7578 -4.9125 6.1984
-0.0309 18.5959 6.5971 3.5233 13.2838 3.4625 0.0000 0.0000 0.0000 -25.9186 -7.0719 -7.1604 1.1181 6.7173 18.8806 0.1292 -9.2877 -8.6171 0.0200 0.9136 2.5110 0.0000 0.0000 0.0000 10.4548 5.1912 -16.9475 -10.5108 -17.6872 61.1823 0.0988 -5.9006 -4.2437 -0.0537 1.4949 -4.1116 -6.6627 4.5695 2.9958 -2.4998 5.9510 2.3056 0.9517 2.9234 0.3020 12.6855 21.6481 5.8084 -17.7075 31.3682 7.3247 -4.9545 15.5454 6.1172 -0.0000 0.0000 0.0000 -87.2407 -4.0353 4.2359 9.9734 -16.6980 -1.4673 -0.0000 -0.0000 30.7207 13.1662 33.5445 7.3654 -7.1250 0.0000 -0.0000 -23.6320 62.6920 -10.4623 -0.0000 0.0000 0.0000 89.6742 -7.5914 4.0430 -17.9038 28.0338 -4.5039 0.0000 0.0000 21.6515 -18.3108 24.3494 -7.7695 7.1250 -0.0000 -0.0000 6.7879 -4.6454 6.2608
-0.0056 18.5913 6.7373 3.6742 13.3158 3.6491 0.0000 0.0000 0.0000 -26.0679 -6.7913 -7.0225 1.1358 6.7684 19.0311 0.1225 -9.5717 -8.6665 0.0328 1.1696 3.2156 0.0000 0.0000 0.0000 10.3496 5.5183 -17.9522 -10.4726 -17.6672 61.0566 0.0871 -6.1045 -5.5900 -0.0724 1.7363 -4.7775 -6.8650 4.6297 2.9544 -2.4753 6.0243 2.2186 1.0816 2.9614 0.2079 12.7069 21.5775 6.2760 -17.9911 31.2432 6.7341 -5.1350 15.5336 5.8908 0.0000 -0.0000 0.0000 -87.2667 -3.7217 5.0939 10.2712 -17.1626 -1.5540 -0.0000 -0.0000 29.8760 13.8499 33.1155 7.6713 -7.1250 0.0000 -0.0000 -22.4889 62.4783 -9.8150 0.0000 -0.0000 0.0000 89.6053 -7.7701 4.1959 -17.9118 28.0441 -4.5077 0.0000 0.0000 21.2565 -18.5872 24.6253 -7.9767 7.1250 -0.0000 -0.0000 6.6412 -4.3199 6.1644
0.0357 18.5862 6.8709 4.4068 13.5081 4.2447 0.0000 0.0000 0.0000 -26.8830 -6.5296 -7.2310 1.1746 6.8790 19.3575 0.1065 -10.2060 -8.7816 0.0558 1.5247 4.1938 0.0000 0.0000 0.0000 9.4087 5.6153 -19.3479 -10.3902 -17.6235 60.7847 0.0606 -6.0361 -6.6428 -0.0651 1.6458 -4.5278 -7.4776 4.5303 2.6452 -2.6584 5.9016 2.0814 1.2514 2.8978 0.2079 12.6320 21.6646 6.3929 -17.9035 31.3284 6.5872 -5.1135 15.5886 5.8129 0.0000 0.0000 0.0000 -87.2552 -3.6212 5.4197 10.3940 -17.3534 -1.5904 -0.0000 -0.0000 29.4432 13.8123 33.4961 7.7267 -7.1250 0.0000 -0.0000 -22.8883 62.8145 -10.1803 0.0000 0.0000 0.0000 89.5389 -7.9223 4.4969 -17.9261 28.0624 -4.5144 0.0000 0.0000 20.9581 -18.0778 24.4888 -7.7057 7.1250 -0.0000 -0.0000 6.9424 -4.5390 6.4195
